<?xml version="1.0" standalone="no"?><!DOCTYPE svg PUBLIC "-//W3C//DTD SVG 1.1//EN" "http://www.w3.org/Graphics/SVG/1.1/DTD/svg11.dtd"><svg t="1576368881091" class="icon" viewBox="0 0 1024 1024" version="1.1" xmlns="http://www.w3.org/2000/svg" p-id="1144" xmlns:xlink="http://www.w3.org/1999/xlink" width="200" height="200"><defs><style type="text/css"></style></defs><path d="M581.7 786.7l-54 52.1c-7.4 7.1-15.4 8.6-20.9 8.6-5.4 0-13.4-1.5-20.8-8.6L183.7 548.6c-18.2-17.5-32.7-38.2-43.1-61.6-10.4-23.5-16.2-48.6-17.1-74.5-0.9-25.9 3.1-51.4 11.9-75.6 8.7-24.2 21.8-45.9 38.8-64.8 16.9-18.7 36.8-33.5 59.2-44.1 22.3-10.5 46-16.3 70.5-17.2 2.2-0.1 4.4-0.1 6.6-0.1 47.2 0 92.2 18.3 126.9 51.6l27.3 26.2 41.6 40 41.6-40.1 38.4-37c34.7-33.4 79.8-51.9 127.1-51.9 2.1 0 4.2 0 6.3 0.1 24.5 0.8 48.2 6.6 70.5 17 22.5 10.5 42.4 25.3 59.3 43.9 17 18.8 30.1 40.5 38.9 64.7 8.8 24.2 12.9 49.7 12 75.6-0.8 25.9-6.5 51-16.9 74.5-4.1 9.2-8.8 18-14.1 26.3C887 511.5 903 524 917 538.4c26.5-39.7 41.7-86.8 43.3-135.7 2.2-67.5-21.7-133.2-66.5-182.5-44.6-49.2-106.6-78.2-172.1-80.4-2.8-0.1-5.6-0.1-8.3-0.1-62.5 0-122.9 24.5-168.7 68.7l-38.4 37-27.3-26.3c-45.8-44-106-68.3-168.4-68.3-2.9 0-5.8 0.1-8.8 0.2-65.5 2.4-127.4 31.5-172 81-44.7 49.3-68.5 115-66.2 182.5C66 482 94.2 545.8 142.2 591.9l302.3 290.2c17.6 16.9 40 25.3 62.4 25.3 22.5 0 44.9-8.5 62.5-25.4l48.9-47.1a207.34 207.34 0 0 1-36.6-48.2z" p-id="1145" fill="#e5361f"></path><path d="M900.3 655.2H796.1V550.9c0-16.6-13.4-30-30-30s-30 13.4-30 30v104.3H631.8c-16.6 0-30 13.4-30 30s13.4 30 30 30h104.3v104.3c0 16.6 13.4 30 30 30s30-13.4 30-30V715.2h104.3c16.6 0 30-13.4 30-30s-13.5-30-30.1-30z" p-id="1146" fill="#e5361f"></path></svg>