<?xml version="1.0" standalone="no"?><!DOCTYPE svg PUBLIC "-//W3C//DTD SVG 1.1//EN" "http://www.w3.org/Graphics/SVG/1.1/DTD/svg11.dtd"><svg t="1576024897216" class="icon" viewBox="0 0 1024 1024" version="1.1" xmlns="http://www.w3.org/2000/svg" p-id="6586" xmlns:xlink="http://www.w3.org/1999/xlink" width="200" height="200"><defs><style type="text/css"></style></defs><path d="M601.921088 497.493611 88.794894 497.493611c-15.656203 0-28.349813 12.679787-28.349813 28.348652l0 325.32132c0 15.669888 12.69361 28.349675 28.349813 28.349675l513.127218 0c15.641876 0 28.349813-12.679787 28.349813-28.349675L630.271925 525.842263C630.271925 510.173398 617.563988 497.493611 601.921088 497.493611zM573.571275 822.814931 117.144707 822.814931 117.144707 554.191938l456.426568 0L573.571275 822.814931zM956.767051 555.659359c-6.89225-5.370311-15.863943-7.281847-24.280981-5.177929l-228.460423 56.670697c-12.6537 3.12927-21.541478 14.478759-21.541478 27.517727l0 109.547998c0 13.123902 8.999323 24.502044 21.762521 27.575032l228.434839 54.787814c2.186895 0.525979 4.402444 0.773619 6.616969 0.773619 6.310988 0 12.513501-2.102894 17.551444-6.088672 6.811405-5.370311 10.798369-13.566994 10.798369-22.25998L967.648312 578.00018C967.648312 569.279564 963.632694 561.057299 956.767051 555.659359zM910.948686 763.042593 739.184819 721.877031l0-65.031109 171.763866-42.606377L910.948686 763.042593zM182.967482 438.22167c59.801395 0 108.458528-47.174416 108.458528-105.173364s-48.658157-105.200994-108.458528-105.200994c-59.815721 0-108.471831 47.202045-108.471831 105.200994S123.15176 438.22167 182.967482 438.22167zM182.967482 284.544615c28.544249 0 51.758902 21.759583 51.758902 48.502667s-23.214652 48.476061-51.758902 48.476061-51.771182-21.731954-51.771182-48.476061S154.423232 284.544615 182.967482 284.544615zM480.519253 142.44013c-84.357656 0-152.977241 66.331731-152.977241 147.890258 0 81.559551 68.620609 147.891282 152.977241 147.891282s152.963938-66.331731 152.963938-147.891282C633.482168 208.771861 564.875886 142.44013 480.519253 142.44013zM480.519253 381.523343c-53.072881 0-96.277615-40.917922-96.277615-91.193978 0-50.275034 43.203711-91.191932 96.277615-91.191932s96.262265 40.916898 96.262265 91.191932C576.781518 340.605422 533.592134 381.523343 480.519253 381.523343z" p-id="6587" fill="#515151"></path></svg>