<?xml version="1.0" standalone="no"?><!DOCTYPE svg PUBLIC "-//W3C//DTD SVG 1.1//EN" "http://www.w3.org/Graphics/SVG/1.1/DTD/svg11.dtd"><svg t="1575987937910" class="icon" viewBox="0 0 1024 1024" version="1.1" xmlns="http://www.w3.org/2000/svg" p-id="1182" xmlns:xlink="http://www.w3.org/1999/xlink" width="200" height="200"><defs><style type="text/css"></style></defs><path d="M856.96 543.296L526.944 870.24a32 32 0 0 1-45.184-0.128L153.408 541.248l-0.064 0.064C102.72 474.432 96 434.528 96 374.72 96 238.464 207.744 128 345.6 128c64.16 0 122.208 23.936 165.92 63.232A250.304 250.304 0 0 1 678.4 128c137.856 0 249.6 110.464 249.6 246.72 0 67.296-26.944 124.16-71.072 168.544z m-52.192-48.128c34.144-33.76 51.904-74.08 51.904-120.416 0-97.344-79.808-176.256-178.272-176.256a178.528 178.528 0 0 0-121.504 47.264 245.6 245.6 0 0 1 35.744 113.504s-69.44 0-69.44-0.064c-7.968-90.176-84.448-161.792-177.6-161.792-98.464 0-180.224 80-180.224 177.344 0 54.688 4.192 71.232 40 118.592l299.52 299.04 299.904-297.216z" fill="#636363" p-id="1183"></path></svg>